<?xml version="1.0" standalone="no"?>
<!DOCTYPE svg PUBLIC "-//W3C//DTD SVG 20010904//EN"
 "http://www.w3.org/TR/2001/REC-SVG-20010904/DTD/svg10.dtd">
<svg version="1.0" xmlns="http://www.w3.org/2000/svg"
 width="20.000000pt" height="20.000000pt" viewBox="0 0 20.000000 20.000000"
 preserveAspectRatio="xMidYMid meet">

<g transform="translate(0.000000,20.000000) scale(0.100000,-0.100000)"
fill="#000000" stroke="none">
<path d="M61 181 c-22 -22 -36 -78 -29 -116 3 -14 -1 -30 -8 -36 -26 -22 -14
-26 76 -26 90 0 100 3 79 24 -6 6 -12 35 -14 64 -2 30 -5 63 -7 74 -6 37 -66
47 -97 16z m33 -93 c5 -10 7 -10 12 0 7 15 37 16 32 0 -8 -22 -37 -34 -55 -22
-9 6 -19 16 -21 22 -5 16 25 15 32 0z m-40 -24 c3 -8 2 -12 -4 -9 -6 3 -10 10
-10 16 0 14 7 11 14 -7z m101 -3 c-3 -6 -11 -11 -17 -11 -6 0 -6 6 2 15 14 17
26 13 15 -4z"/>
</g>
</svg>
