<?xml version="1.0" standalone="no"?>
<!DOCTYPE svg PUBLIC "-//W3C//DTD SVG 20010904//EN"
 "http://www.w3.org/TR/2001/REC-SVG-20010904/DTD/svg10.dtd">
<svg version="1.0" xmlns="http://www.w3.org/2000/svg"
 width="20.000000pt" height="20.000000pt" viewBox="0 0 20.000000 20.000000"
 preserveAspectRatio="xMidYMid meet">

<g transform="translate(0.000000,20.000000) scale(0.100000,-0.100000)"
fill="#000000" stroke="none">
<path d="M93 193 c9 -2 23 -2 30 0 6 3 -1 5 -18 5 -16 0 -22 -2 -12 -5z"/>
<path d="M89 138 c-6 -26 -5 -38 2 -49 8 -12 10 -12 18 0 11 18 8 44 -7 49 -7
2 -12 2 -13 0z"/>
<path d="M31 102 c-1 -30 1 -32 14 -18 17 16 20 30 6 21 -5 -3 -12 3 -14 12
-3 10 -5 3 -6 -15z"/>
<path d="M160 114 c0 -14 -3 -14 -15 -4 -21 18 -19 7 5 -20 l20 -23 0 31 c0
18 -2 32 -5 32 -3 0 -5 -7 -5 -16z"/>
<path d="M66 65 c8 -19 60 -19 68 0 4 12 2 13 -14 2 -16 -9 -24 -9 -40 0 -16
11 -18 10 -14 -2z"/>
<path d="M34 53 c3 -3 -2 -16 -11 -27 -11 -13 -12 -16 -3 -9 8 6 25 13 37 15
22 3 22 3 -3 15 -15 7 -24 10 -20 6z"/>
<path d="M140 44 l-25 -14 26 0 c14 0 31 -6 39 -13 8 -6 7 -3 -3 9 -9 11 -14
24 -10 27 9 10 2 7 -27 -9z"/>
</g>
</svg>
